<svg xmlns="http://www.w3.org/2000/svg"><symbol fill="#6A677B" id="sprite-clock" viewBox="0 0 20 20"><title>clock</title><path d="M10 19a9 9 0 100-18 9 9 0 000 18z" stroke="#fff" stroke-miterlimit="10" stroke-linecap="round" stroke-linejoin="round"/><path d="M10 10.87a.871.871 0 100-1.741.871.871 0 000 1.742zM7.097 7.097L9.13 9.129m5.516-3.775L10.872 9.13M10 3.322v1.162m0 11.032v1.16M15.517 10h1.16M3.323 10h1.16" stroke="#fff" stroke-miterlimit="10" stroke-linecap="round" stroke-linejoin="round"/></symbol><symbol fill="none" id="sprite-vector" viewBox="0 0 122 117"><title>vector</title><path opacity=".5" clip-rule="evenodd" d="M60.298 1.873c18.397-1.076 39.304-3.505 51.529 10.32 12.659 14.316 9.828 35.613 5.579 54.264-4.248 18.647-11.255 38.308-28.522 46.444-17.131 8.072-36.696 1.075-53.407-7.84-15.698-8.375-29.32-20.997-33.242-38.385-3.913-17.35 1.706-35.631 13.562-48.864 11.075-12.36 27.957-14.97 44.5-15.939z" stroke="#FF485A"/></symbol><symbol fill="none" id="sprite-vector" viewBox="0 0 122 117"><title>vector</title><path opacity=".5" clip-rule="evenodd" d="M60.298 1.873c18.397-1.076 39.304-3.505 51.529 10.32 12.659 14.316 9.828 35.613 5.579 54.264-4.248 18.647-11.255 38.308-28.522 46.444-17.131 8.072-36.696 1.075-53.407-7.84-15.698-8.375-29.32-20.997-33.242-38.385-3.913-17.35 1.706-35.631 13.562-48.864 11.075-12.36 27.957-14.97 44.5-15.939z" stroke="#FF485A"/></symbol><symbol fill="none" id="sprite-vector" viewBox="0 0 122 117"><title>vector</title><path opacity=".5" clip-rule="evenodd" d="M60.298 1.873c18.397-1.076 39.304-3.505 51.529 10.32 12.659 14.316 9.828 35.613 5.579 54.264-4.248 18.647-11.255 38.308-28.522 46.444-17.131 8.072-36.696 1.075-53.407-7.84-15.698-8.375-29.32-20.997-33.242-38.385-3.913-17.35 1.706-35.631 13.562-48.864 11.075-12.36 27.957-14.97 44.5-15.939z" stroke="#FF485A"/></symbol><symbol id="sprite-file-code" viewBox="0 0 12 16"><title>file-code</title><path fill-rule="evenodd" d="M8.5 1H1c-.55 0-1 .45-1 1v12c0 .55.45 1 1 1h10c.55 0 1-.45 1-1V4.5L8.5 1zM11 14H1V2h7l3 3v9zM5 6.98L3.5 8.5 5 10l-.5 1L2 8.5 4.5 6l.5.98zM7.5 6L10 8.5 7.5 11l-.5-.98L8.5 8.5 7 7l.5-1z"/></symbol><symbol id="sprite-file-directory" viewBox="0 0 14 16"><title>file-directory</title><path fill-rule="evenodd" d="M13 4H7V3c0-.66-.31-1-1-1H1c-.55 0-1 .45-1 1v10c0 .55.45 1 1 1h12c.55 0 1-.45 1-1V5c0-.55-.45-1-1-1zM6 4H1V3h5v1z"/></symbol><symbol id="sprite-chevron-right" viewBox="0 0 1792 1792"><title>chevron-right</title><path fill="#FFF" d="M1363 877l-742 742q-19 19-45 19t-45-19l-166-166q-19-19-19-45t19-45l531-531-531-531q-19-19-19-45t19-45L531 45q19-19 45-19t45 19l742 742q19 19 19 45t-19 45z"/></symbol><symbol id="sprite-icon-book" viewBox="0 0 1792 1792"><title>icon-book</title><path fill="#FFF" d="M1703 478q40 57 18 129l-275 906q-19 64-76.5 107.5T1247 1664H324q-77 0-148.5-53.5T76 1479q-24-67-2-127 0-4 3-27t4-37q1-8-3-21.5t-3-19.5q2-11 8-21t16.5-23.5T116 1179q23-38 45-91.5t30-91.5q3-10 .5-30t-.5-28q3-11 17-28t17-23q21-36 42-92t25-90q1-9-2.5-32t.5-28q4-13 22-30.5t22-22.5q19-26 42.5-84.5T404 411q1-8-3-25.5t-2-26.5q2-8 9-18t18-23 17-21q8-12 16.5-30.5t15-35 16-36 19.5-32 26.5-23.5 36-11.5T620 134l-1 3q38-9 51-9h761q74 0 114 56t18 130l-274 906q-36 119-71.5 153.5T1089 1408H220q-27 0-38 15-11 16-1 43 24 70 144 70h923q29 0 56-15.5t35-41.5l300-987q7-22 5-57 38 15 59 43zm-1064 2q-4 13 2 22.5t20 9.5h608q13 0 25.5-9.5T1311 480l21-64q4-13-2-22.5t-20-9.5H702q-13 0-25.5 9.5T660 416zm-83 256q-4 13 2 22.5t20 9.5h608q13 0 25.5-9.5T1228 736l21-64q4-13-2-22.5t-20-9.5H619q-13 0-25.5 9.5T577 672z"/></symbol><symbol id="sprite-icon-minus-square-o" viewBox="0 0 1792 1792"><title>icon-minus-square-o</title><path d="M1344 800v64q0 14-9 23t-23 9H480q-14 0-23-9t-9-23v-64q0-14 9-23t23-9h832q14 0 23 9t9 23zm128 448V416q0-66-47-113t-113-47H480q-66 0-113 47t-47 113v832q0 66 47 113t113 47h832q66 0 113-47t47-113zm128-832v832q0 119-84.5 203.5T1312 1536H480q-119 0-203.5-84.5T192 1248V416q0-119 84.5-203.5T480 128h832q119 0 203.5 84.5T1600 416z"/></symbol><symbol id="sprite-icon-minus-square" viewBox="0 0 1792 1792"><title>icon-minus-square</title><path d="M1408 960V832q0-26-19-45t-45-19H448q-26 0-45 19t-19 45v128q0 26 19 45t45 19h896q26 0 45-19t19-45zm256-544v960q0 119-84.5 203.5T1376 1664H416q-119 0-203.5-84.5T128 1376V416q0-119 84.5-203.5T416 128h960q119 0 203.5 84.5T1664 416z"/></symbol><symbol id="sprite-icon-plus-square-o" viewBox="0 0 1792 1792"><title>icon-plus-square-o</title><path d="M1344 800v64q0 14-9 23t-23 9H960v352q0 14-9 23t-23 9h-64q-14 0-23-9t-9-23V896H480q-14 0-23-9t-9-23v-64q0-14 9-23t23-9h352V416q0-14 9-23t23-9h64q14 0 23 9t9 23v352h352q14 0 23 9t9 23zm128 448V416q0-66-47-113t-113-47H480q-66 0-113 47t-47 113v832q0 66 47 113t113 47h832q66 0 113-47t47-113zm128-832v832q0 119-84.5 203.5T1312 1536H480q-119 0-203.5-84.5T192 1248V416q0-119 84.5-203.5T480 128h832q119 0 203.5 84.5T1600 416z"/></symbol><symbol id="sprite-icon-plus-square" viewBox="0 0 1792 1792"><title>icon-plus-square</title><path d="M1408 960V832q0-26-19-45t-45-19h-320V448q0-26-19-45t-45-19H832q-26 0-45 19t-19 45v320H448q-26 0-45 19t-19 45v128q0 26 19 45t45 19h320v320q0 26 19 45t45 19h128q26 0 45-19t19-45v-320h320q26 0 45-19t19-45zm256-544v960q0 119-84.5 203.5T1376 1664H416q-119 0-203.5-84.5T128 1376V416q0-119 84.5-203.5T416 128h960q119 0 203.5 84.5T1664 416z"/></symbol><symbol id="sprite-icon-support" viewBox="0 0 1792 1792"><title>icon-support</title><path fill="#FFF" d="M896 0q182 0 348 71t286 191 191 286 71 348-71 348-191 286-286 191-348 71-348-71-286-191-191-286T0 896t71-348 191-286T548 71 896 0zm0 128q-190 0-361 90l194 194q82-28 167-28t167 28l194-194q-171-90-361-90zM218 1257l194-194q-28-82-28-167t28-167L218 535q-90 171-90 361t90 361zm678 407q190 0 361-90l-194-194q-82 28-167 28t-167-28l-194 194q171 90 361 90zm0-384q159 0 271.5-112.5T1280 896t-112.5-271.5T896 512 624.5 624.5 512 896t112.5 271.5T896 1280zm484-217l194 194q90-171 90-361t-90-361l-194 194q28 82 28 167t-28 167z"/></symbol><symbol id="sprite-symfony-logo" viewBox="0 0 24 24"><title>symfony-logo</title><path fill="#FFF" d="M12 .9C5.8.9.9 5.8.9 12a11 11 0 1022.2 0A11 11 0 0012 .9zm6.5 6c-.6 0-.9-.3-.9-.8 0-.2 0-.4.2-.6l.2-.4c0-.3-.5-.4-.6-.4-1.8.1-2.3 2.5-2.7 4.4l-.2 1c1 .2 1.8 0 2.2-.3.6-.4-.2-.7-.1-1.2.1-.3.5-.5.7-.6.5 0 .7.5.7.9 0 .7-1 1.8-3 1.8l-.6-.1-.6 2.4c-.4 1.6-.8 3.8-2.4 5.7-1.4 1.7-2.9 1.9-3.5 1.9-1.2 0-1.9-.6-2-1.5 0-.8.7-1.3 1.2-1.3.6 0 1.1.5 1.1 1s-.2.6-.4.6c-.1.1-.3.2-.3.4 0 .1.1.3.4.3.5 0 .8-.3 1.1-.5 1.2-.9 1.6-2.7 2.2-5.7l.1-.7.7-3.2c-.8-.6-1.3-1.4-2.4-1.7-.6-.1-1.1.1-1.5.5-.4.5-.2 1.1.2 1.5l.7.6c.7.8 1.2 1.6 1 2.5-.3 1.5-2 2.6-4 1.9-1.8-.6-2-1.8-1.8-2.5.2-.6.6-.7 1.1-.6.5.2.6.7.6 1.2l-.1.3c-.2.1-.3.3-.3.4-.1.4.4.6.7.7.7.3 1.6-.2 1.8-.8a1 1 0 00-.4-1.1l-.7-.8c-.4-.4-1.1-1.4-.7-2.6.1-.5.4-.9.7-1.3a4 4 0 012.8-.6c1.2.4 1.8 1.1 2.6 1.8.5-1.2 1-2.4 1.8-3.5.9-.9 1.9-1.6 3.1-1.7 1.3.2 2.2.7 2.2 1.6 0 .4-.2 1.1-.9 1.1z"/></symbol></svg>